<?xml version="1.0" encoding="utf-8"?>
<!-- Generator: Adobe Illustrator 26.4.1, SVG Export Plug-In . SVG Version: 6.00 Build 0)  -->
<svg version="1.1" id="Camada_1" xmlns="http://www.w3.org/2000/svg" xmlns:xlink="http://www.w3.org/1999/xlink" x="0px" y="0px"
	 width="65px" height="65px" viewBox="0 0 65 65" enable-background="new 0 0 65 65" xml:space="preserve">
<path fill="#FFFFFF" d="M53,1.5H12c-6.2,0-11.3,5-11.3,11.3v39.5c0,6.2,5,11.3,11.3,11.3h41c6.2,0,11.3-5,11.3-11.3V12.8
	C64.3,6.5,59.3,1.5,53,1.5z M23.3,29.1c-0.3-0.8-0.5-1.6-0.8-2.4s-0.5-1.6-0.7-2.4c-0.2-0.7-0.4-1.4-0.6-2.1h-0.1
	c-0.2,1.1-0.5,2.3-0.9,3.4c-0.4,1.3-0.8,2.6-1.2,3.9c-0.3,1.4-0.8,2.6-1.2,3.7h6.7c-0.2-0.6-0.4-1.2-0.6-1.9
	C23.8,30.7,23.6,29.9,23.3,29.1z M46.1,28.3c-1.5-0.1-2.8,0.7-3.5,2C42.2,31,42,31.6,42,32.3h5.6c0.7,0,1.2,0,1.5,0
	c0.2,0,0.4-0.1,0.6-0.2v-0.3c0-0.3-0.1-0.7-0.2-1C49,29.3,47.6,28.3,46.1,28.3L46.1,28.3z M34.4,45.3h-5.5c-0.2,0-0.4-0.1-0.4-0.3
	l-2.2-6.4h-9.9l-2,6.2c-0.1,0.2-0.3,0.4-0.5,0.4h-5c-0.3,0-0.4-0.2-0.3-0.5l8.5-24.4c0.1-0.3,0.2-0.5,0.3-0.8
	c0.1-0.6,0.2-1.1,0.2-1.7c0-0.1,0.1-0.3,0.2-0.3h6.9c0.2,0,0.3,0.1,0.3,0.2l9.7,27.2C34.7,45.2,34.7,45.3,34.4,45.3L34.4,45.3z
	 M55.2,34.7c-0.1,0.5-0.1,0.9-0.1,1.1c0,0.2-0.2,0.3-0.4,0.3c-0.2,0-0.5,0-0.9,0.1c-0.4,0.1-0.9,0.1-1.5,0.1c-0.6,0-1.2-0.1-1.9-0.1
	h-8.4c0.1,0.8,0.4,1.6,0.8,2.4c0.5,0.7,1.1,1.3,1.9,1.6c1.1,0.5,2.2,0.7,3.4,0.7c0.9,0,1.9-0.1,2.8-0.3c0.8-0.1,1.6-0.3,2.4-0.6
	c0.1-0.1,0.2-0.1,0.2,0.2v4.1c0,0.1,0,0.2-0.1,0.3c-0.1,0.1-0.1,0.1-0.2,0.2c-0.8,0.4-1.7,0.6-2.7,0.8c-1.2,0.2-2.5,0.3-3.8,0.3
	c-2,0-3.7-0.3-5.1-0.9c-1.3-0.6-2.4-1.4-3.3-2.5c-0.8-1-1.5-2.2-1.8-3.5c-0.4-1.2-0.6-2.5-0.6-3.9c0-1.4,0.2-2.8,0.7-4.2
	c0.4-1.3,1.1-2.5,2-3.6c0.9-1.1,2-1.9,3.2-2.5c1.2-0.6,2.7-0.8,4.4-0.8c1.4,0,2.8,0.2,4.1,0.8c1.1,0.5,2,1.2,2.8,2.1
	c0.7,0.9,1.2,1.9,1.6,3c0.3,1.1,0.5,2.1,0.5,3.2C55.2,33.6,55.2,34.2,55.2,34.7L55.2,34.7z"/>
</svg>
