<?xml version="1.0" encoding="utf-8"?>
<!-- Generator: Adobe Illustrator 26.4.1, SVG Export Plug-In . SVG Version: 6.00 Build 0)  -->
<svg version="1.1" id="Camada_1" xmlns="http://www.w3.org/2000/svg" xmlns:xlink="http://www.w3.org/1999/xlink" x="0px" y="0px"
	 width="65px" height="65px" viewBox="0 0 65 65" enable-background="new 0 0 65 65" xml:space="preserve">
<path fill="#FFFFFF" d="M1.5,1.5v62h62v-62H1.5z M41.2,20.8C40.3,9.3,34,5.4,34,5.4S44.2,8,45.4,21.4C46.6,34.4,34,54.2,34,54.2
	S42.2,33,41.2,20.8z M33.7,5.7c8.6,8.6,0,48.5,0,48.5h-2.3c0,0-8.6-39.9,0-48.5C31.8,5.3,33.3,5.3,33.7,5.7z M23.8,20.8
	C22.8,33,31,54.2,31,54.2S18.4,34.4,19.6,21.4C20.8,8,31,5.4,31,5.4S24.7,9.3,23.8,20.8z M28.5,5.4c0,0-12.1,5.3-12.2,16.8
	c0,13.6,14,32,14,32s-16-20-16-31.8S28.5,5.4,28.5,5.4z M34.7,59.6h-4.3l-0.6-3.9c1.8,0.4,3.7,0.4,5.5,0L34.7,59.6z M34.7,54.2
	c0,0,14-18.4,14-32c0-11.5-12.2-16.8-12.2-16.8s14.2,5.1,14.2,17S34.7,54.2,34.7,54.2z"/>
</svg>
