<?xml version="1.0" encoding="utf-8"?>
<!-- Generator: Adobe Illustrator 26.4.1, SVG Export Plug-In . SVG Version: 6.00 Build 0)  -->
<svg version="1.1" id="Camada_1" xmlns="http://www.w3.org/2000/svg" xmlns:xlink="http://www.w3.org/1999/xlink" x="0px" y="0px"
	 width="65px" height="65px" viewBox="0 0 65 65" enable-background="new 0 0 65 65" xml:space="preserve">
<path fill="#FFFFFF" d="M55.1,57.3l5-55.3H4.9L5,2.7l4.9,54.6l0,0.5L32.3,64h0.4l22.5-6.2L55.1,57.3L55.1,57.3z M32.5,14.1h16
	l-0.5,5.6l-15.8,7l0.3,1.3h14.9l-1.7,19.5l-13.2,3.6l-13.2-3.6l-0.8-9.3h5.4l0.4,4.7l0,0.5l8,2.1h0.3l7.9-2.2l0-0.5l0.7-8.7l0.1-0.7
	H18l-0.5-5.6l16.4-7l-0.3-1.3H16.8l-0.5-5.4L32.5,14.1L32.5,14.1z"/>
</svg>
