<?xml version="1.0" encoding="utf-8"?>
<!-- Generator: Adobe Illustrator 26.4.1, SVG Export Plug-In . SVG Version: 6.00 Build 0)  -->
<svg version="1.1" id="Camada_1" xmlns="http://www.w3.org/2000/svg" xmlns:xlink="http://www.w3.org/1999/xlink" x="0px" y="0px"
	 width="65px" height="65px" viewBox="0 0 65 65" enable-background="new 0 0 65 65" xml:space="preserve">
<path fill="#FFFFFF" d="M14.3,39.6c-1.9-1.9-2.9-4.4-2.9-7.1s1-5.2,2.9-7.1c1.9-1.9,4.4-2.9,7.1-2.9h10v20h-10
	C18.7,42.5,16.2,41.4,14.3,39.6z M47.4,19.5c1.2-0.5,2.3-1.2,3.2-2.2c0.9-0.9,1.7-2,2.2-3.2c0.5-1.2,0.8-2.5,0.8-3.8
	s-0.3-2.6-0.8-3.8c-0.5-1.2-1.2-2.3-2.2-3.2c-0.9-0.9-2-1.7-3.2-2.2c-1.2-0.5-2.5-0.8-3.8-0.8h-10v20h10
	C44.9,20.3,46.2,20,47.4,19.5z M14.3,3.2c-1.9,1.9-2.9,4.4-2.9,7.1s1,5.2,2.9,7.1c1.9,1.9,4.4,2.9,7.1,2.9h10v-20h-10
	C18.7,0.3,16.2,1.3,14.3,3.2z M36.5,39.6c0.9,0.9,2,1.7,3.2,2.2c2.4,1,5.2,1,7.6,0c1.2-0.5,2.3-1.2,3.2-2.2c0.9-0.9,1.7-2,2.2-3.2
	c0.5-1.2,0.8-2.5,0.8-3.8c0-1.3-0.3-2.6-0.8-3.8c-0.5-1.2-1.2-2.3-2.2-3.2c-0.9-0.9-2-1.7-3.2-2.2c-1.2-0.5-2.5-0.8-3.8-0.8
	c-1.3,0-2.6,0.3-3.8,0.8c-1.2,0.5-2.3,1.2-3.2,2.2c-0.9,0.9-1.7,2-2.2,3.2c-0.5,1.2-0.8,2.5-0.8,3.8c0,1.3,0.3,2.6,0.8,3.8
	C34.9,37.5,35.6,38.6,36.5,39.6z M21.4,64.7c2.7,0,5.2-1,7.1-2.9c1.9-1.9,2.9-4.4,2.9-7.1v-10h-10c-2.7,0-5.2,1-7.1,2.9
	c-1.9,1.9-2.9,4.4-2.9,7.1c0,2.7,1,5.2,2.9,7.1C16.2,63.7,18.7,64.7,21.4,64.7z"/>
</svg>
