<?xml version="1.0" encoding="utf-8"?>
<!-- Generator: Adobe Illustrator 26.4.1, SVG Export Plug-In . SVG Version: 6.00 Build 0)  -->
<svg version="1.1" id="Camada_1" xmlns="http://www.w3.org/2000/svg" xmlns:xlink="http://www.w3.org/1999/xlink" x="0px" y="0px"
	 width="65px" height="65px" viewBox="0 0 65 65" style="enable-background:new 0 0 65 65;" xml:space="preserve">
<style type="text/css">
	.st0{fill:#FFFFFF;}
</style>
<path id="g6628" transform="matrix(3.5485559,0,0,3.5485559,-174.94921,-339.18037)" class="st0" d="M62.4,98v13.3
	c0,1.7,1.2,2.6,2.4,2.6c1.1,0,2.4-0.8,2.4-2.6V98.1c0-1.6-1.1-2.5-2.4-2.5C63.5,95.6,62.4,96.7,62.4,98z M56.1,105.1v6.2
	c0,1.7,1.2,2.6,2.4,2.6c1.1,0,2.4-0.8,2.4-2.6v-6.1c0-1.6-1.1-2.5-2.4-2.5C57.2,102.7,56.1,103.7,56.1,105.1L56.1,105.1z
	 M54.6,111.5c0,1.3-1.1,2.4-2.4,2.4s-2.4-1.1-2.4-2.4c0-1.3,1.1-2.4,2.4-2.4S54.6,110.2,54.6,111.5"/>
</svg>
