<?xml version="1.0" encoding="utf-8"?>
<!-- Generator: Adobe Illustrator 26.4.1, SVG Export Plug-In . SVG Version: 6.00 Build 0)  -->
<svg version="1.1" id="Layer_1" xmlns="http://www.w3.org/2000/svg" xmlns:xlink="http://www.w3.org/1999/xlink" x="0px" y="0px"
	 width="319.1px" height="294px" viewBox="0 0 319.1 294" enable-background="new 0 0 319.1 294" xml:space="preserve">
<path fill="#FFFFFF" d="M163.4,161.9L163.4,161.9l-1-1.7c-0.7-1.1-1.3-2.2-1.9-3.4c-0.5-1-1.1-2-1.6-3
	c-12.9-22.6-26.8-46.6-42.4-73.4c-5.3-9.2-7.7-18.5-7.3-28.5c0.3-4.8,1.3-9.4,2.3-13.4c3.3-8.5,7.5-15.2,12.8-20.3
	c11.3-11,26.7-16,42.4-13.7c15.7,2.3,29.1,11.6,36.8,25.5c8.6,15.7,17.7,31.4,26.5,46.5c4.5,7.7,8.9,15.4,13.4,23.2
	c6.7,11.7,13.5,23.4,20.2,35.1c15.3,26.4,31,53.7,46.3,80.7c8.2,14.5,8.8,31.4,1.5,46.4c-7.2,14.8-21.1,25.2-37.3,27.6
	c-21,3.1-40.9-6.6-51.8-25.5c-13.8-24-27.6-48-41.4-71.9l-17.1-29.6C163.6,162.2,163.5,162.1,163.4,161.9z M100.2,254.4
	c0.1-0.2,0.1-0.4,0.2-0.6c4.9-18,1-34.2-11.6-48.2c-7.3-8-16.9-12.9-28.4-14.6c-14.4-2-27.1,1.5-38.9,10.8c-0.7,0.5-1.4,1.2-2,1.9
	c-1.2,1.3-2.7,2.8-4.7,3.8l0,0c-0.3,0.4-0.7,0.7-1.2,1c-0.4,0.6-0.8,1.3-1.2,1.9c-0.8,1.3-1.6,2.5-2.3,3.7
	c-6,10.1-8.3,20.9-6.7,32.3c3.3,23.9,22.2,41.7,45.9,43.4c20.5,1.3,36.6-7.2,47.6-25.4c0.8-1.2,1.4-2.5,2.1-3.8
	c0.2-0.4,0.5-0.9,0.7-1.3c0-0.8,0.1-1.4,0.3-2C99.7,256.2,100,255.2,100.2,254.4z M124.9,215.4c2.9-5,5.8-10,8.7-15
	c7.8-13.4,15.1-25.8,22-37.8c-1-1.2-1.7-2.6-2.3-3.8c-0.3-0.5-0.6-1-0.8-1.5c-4.9-8.6-9.9-17.3-14.8-25.6
	c-3.8-6.6-7.7-13.2-11.4-19.8c-2.8-4.9-5.7-9.9-8.4-14.6c-2.8-4.8-5.7-9.7-8.5-14.6c-4.8-8.4-7.3-17.6-7.5-27.3
	C79,94.7,55.9,134.7,33.6,173.5c-3.1,5.4-6.2,10.7-9.2,16c-0.5,0.8-0.9,1.6-1.4,2.4c14.9-9.5,33.3-11.4,50.2-4.9
	c18.8,7.2,32,23.1,35.4,42.6c0.7,4.1,1,8.3,0.8,12.4C114.6,233.1,119.8,224.2,124.9,215.4z"/>
</svg>
