<?xml version="1.0" encoding="utf-8"?>
<!-- Generator: Adobe Illustrator 26.4.1, SVG Export Plug-In . SVG Version: 6.00 Build 0)  -->
<svg version="1.1" id="Camada_1" xmlns="http://www.w3.org/2000/svg" xmlns:xlink="http://www.w3.org/1999/xlink" x="0px" y="0px"
	 width="65px" height="65px" viewBox="0 0 65 65" enable-background="new 0 0 65 65" xml:space="preserve">
<path fill="#FFFFFF" d="M53,1.5H12c-6.2,0-11.3,5-11.3,11.3v39.5c0,6.2,5,11.3,11.3,11.3H53c6.2,0,11.3-5,11.3-11.3V12.8
	C64.3,6.5,59.3,1.5,53,1.5z M39.6,45.2H34c-0.2,0-0.4-0.1-0.4-0.3l-2.2-6.3h-9.9l-2,6.2c-0.1,0.2-0.3,0.4-0.5,0.4h-5
	c-0.3,0-0.4-0.2-0.3-0.5l8.5-24.6c0.1-0.3,0.2-0.6,0.3-0.9c0.1-0.6,0.2-1.1,0.2-1.7c0-0.1,0.1-0.3,0.2-0.3h6.9
	c0.2,0,0.3,0.1,0.3,0.2l9.7,27.3C39.9,45.1,39.8,45.2,39.6,45.2z M48.7,44.9c0,0.3-0.1,0.4-0.3,0.4h-5.2c-0.3,0-0.4-0.2-0.4-0.4
	V24.5c0-0.3,0.1-0.4,0.3-0.4h5.2c0.2,0,0.3,0.1,0.3,0.4V44.9z M48.2,21c-0.6,0.6-1.5,1-2.4,0.9c-0.9,0-1.7-0.3-2.4-0.9
	c-0.6-0.7-0.9-1.5-0.9-2.4c0-0.9,0.3-1.7,1-2.4c0.6-0.6,1.5-0.9,2.4-0.9c1,0,1.8,0.3,2.4,0.9c0.6,0.6,0.9,1.5,0.9,2.4
	C49.1,19.4,48.8,20.3,48.2,21z M29.2,31.3c0.2,0.7,0.5,1.4,0.6,1.9h-6.7c0.4-1.1,0.8-2.4,1.2-3.7c0.4-1.3,0.8-2.6,1.2-3.9
	c0.4-1.1,0.7-2.3,0.9-3.4h0.1c0.2,0.6,0.4,1.3,0.6,2.1c0.2,0.8,0.5,1.5,0.7,2.4c0.3,0.8,0.5,1.6,0.8,2.4
	C28.8,29.8,29,30.6,29.2,31.3z"/>
</svg>
