<?xml version="1.0" encoding="utf-8"?>
<!-- Generator: Adobe Illustrator 26.4.1, SVG Export Plug-In . SVG Version: 6.00 Build 0)  -->
<svg version="1.1" id="Camada_1" xmlns="http://www.w3.org/2000/svg" xmlns:xlink="http://www.w3.org/1999/xlink" x="0px" y="0px"
	 width="65px" height="65px" viewBox="0 0 65 65" enable-background="new 0 0 65 65" xml:space="preserve">
<path fill-rule="evenodd" clip-rule="evenodd" fill="#FFFFFF" d="M1.5,1.5h62v62h-62V1.5z M48.9,53.5c-2.9,0-4.5-1.5-5.7-3.5
	l-4.7,2.8c1.7,3.4,5.2,6,10.6,6c5.5,0,9.7-2.9,9.7-8.1c0-4.9-2.8-7-7.7-9.2l-1.5-0.6c-2.5-1.1-3.6-1.8-3.6-3.5
	c0-1.4,1.1-2.5,2.8-2.5c1.7,0,2.7,0.7,3.7,2.5l4.5-2.9c-1.9-3.4-4.6-4.7-8.3-4.7c-5.2,0-8.5,3.3-8.5,7.7c0,4.7,2.8,7,7,8.8l1.5,0.6
	c2.7,1.2,4.2,1.9,4.2,3.9C52.9,52.3,51.3,53.5,48.9,53.5z M26.3,53.4c-2,0-2.8-1.4-3.8-3l-4.7,2.9c1.4,2.9,4.1,5.3,8.7,5.3
	c5.2,0,8.7-2.7,8.7-8.8V30h-5.8v19.8C29.4,52.7,28.2,53.4,26.3,53.4L26.3,53.4z"/>
</svg>
