<?xml version="1.0" encoding="utf-8"?>
<!-- Generator: Adobe Illustrator 26.4.1, SVG Export Plug-In . SVG Version: 6.00 Build 0)  -->
<svg version="1.1" id="Camada_1" xmlns="http://www.w3.org/2000/svg" xmlns:xlink="http://www.w3.org/1999/xlink" x="0px" y="0px"
	 width="65px" height="65px" viewBox="0 0 65 65" enable-background="new 0 0 65 65" xml:space="preserve">
<path fill="#FFFFFF" d="M30,28.5c-3.2,4.7-5,7.9-5,7.9c-4.3,6.5-5.6,8.1-8.1,8.1c-2.5-0.2-3.8-2.2-3.8-6.1c0-8.1,4-16.2,8.8-16.2
	C24.4,22.2,26.7,23.7,30,28.5z M43.1,21c-2.7,0-4.7,2-7.4,6.1c0.7,1.1,1.6,2.2,2.2,3.6l2.9,4.7c4.5,7.2,5.6,8.8,8.3,9
	c2.5,0,3.6-2.2,3.6-5.8C52.8,28.9,48.5,21,43.1,21z M64,10v45c0,5-4,9-9,9H10c-5,0-9-4-9-9V10c0-5,4-9,9-9h45C60,1,64,5,64,10z
	 M57.2,37.9c0-11.7-6.3-21.4-14-21.4c-4,0.2-7.2,3.4-10.1,7.2c-4-4.9-7.2-7-11.2-7c-8.1,0-14.2,10.6-14.2,21.6c0,7,3.4,11.2,9,11.2
	c4,0,7-1.8,12.2-11c0,0,2.2-3.8,3.6-6.5c0.5,0.9,1.1,1.8,1.6,2.7l2.5,4c4.7,7.9,7.4,10.6,12.2,10.6C54.1,49.4,57.2,44.9,57.2,37.9z"
	/>
</svg>
