<?xml version="1.0" encoding="utf-8"?>
<!-- Generator: Adobe Illustrator 26.4.1, SVG Export Plug-In . SVG Version: 6.00 Build 0)  -->
<svg version="1.1" id="Camada_1" xmlns="http://www.w3.org/2000/svg" xmlns:xlink="http://www.w3.org/1999/xlink" x="0px" y="0px"
	 width="65px" height="65px" viewBox="0 0 65 65" enable-background="new 0 0 65 65" xml:space="preserve">
<path fill="#FFFFFF" d="M28.7,24.5c0.4,0.7,0.6,1.5,0.6,2.3c0,1.2-0.3,2.1-0.8,2.7c-0.6,0.7-1.3,1.2-2.2,1.4c-1,0.3-2,0.5-3.1,0.5
	h-1.4c-0.3,0-0.7,0-1,0v-8.9h0c0.2,0,0.6-0.1,1.1-0.1c0.5,0,1.1,0,1.8,0c1.1,0,2.1,0.1,3.1,0.5C27.6,23.3,28.2,23.8,28.7,24.5z
	 M64.3,12.8v39.5c0,6.2-5,11.3-11.3,11.3H12c-6.2,0-11.3-5-11.3-11.3V12.8c0-6.2,5-11.3,11.3-11.3H53C59.3,1.5,64.3,6.5,64.3,12.8z
	 M35.1,26.7c0-1.2-0.2-2.3-0.6-3.4c-0.4-1.1-1.1-2.2-1.9-3c-1-1-2.2-1.7-3.6-2.2c-1.5-0.5-3.3-0.8-5.5-0.8c-0.8,0-1.6,0-2.4,0
	l-2.3,0c-0.7,0-1.4,0-2,0s-1,0-1.5,0c-0.2,0-0.3,0.1-0.3,0.3V45c0,0.2,0.1,0.3,0.3,0.3h5.1c0,0,0.1,0,0.1,0c0,0,0,0,0,0
	c0.2,0,0.3-0.2,0.3-0.4v-8.5c0.5,0,0.9,0,1.2,0c0.3,0,0.7,0,1.3,0c2.2,0,4.2-0.2,6-0.9c1.7-0.6,3.2-1.7,4.3-3.2
	C34.5,30.9,35.1,29,35.1,26.7z M53.2,39.2c0-0.9-0.2-1.9-0.6-2.7c-0.5-0.9-1.2-1.6-2.1-2.2c-1.3-0.8-2.6-1.5-4.1-1.9
	c-0.6-0.3-1.3-0.5-1.9-0.9c-0.3-0.2-0.6-0.4-0.9-0.7c-0.2-0.2-0.2-0.4-0.3-0.7c0-0.3,0.1-0.5,0.2-0.7c0.2-0.3,0.5-0.5,0.8-0.5
	c0.5-0.1,1.1-0.2,1.6-0.2c1,0,2,0.1,3,0.3c0.9,0.2,1.7,0.5,2.5,0.9c0.1,0.1,0.3,0.1,0.4,0c0.1-0.1,0.1-0.2,0.1-0.3v-4.3
	c0-0.1,0-0.2,0-0.3c0-0.1-0.1-0.2-0.3-0.2c-0.7-0.3-1.5-0.5-2.3-0.6c-1.1-0.2-2.2-0.2-3.3-0.2c-1.9,0-3.4,0.3-4.7,0.9
	c-1.1,0.5-2.1,1.4-2.8,2.4c-0.6,1-0.9,2.1-0.9,3.2c0,0.9,0.2,1.9,0.6,2.7c0.5,0.9,1.2,1.7,2,2.2c1.2,0.8,2.4,1.5,3.8,1.9
	c1.3,0.5,2.2,0.9,2.6,1.2c0.4,0.3,0.6,0.7,0.6,1.1c0,0.5-0.3,0.9-0.7,1.1c-0.5,0.3-1.2,0.4-2.2,0.4c-1.1,0-2.1-0.1-3.1-0.4
	c-1.2-0.3-2.3-0.7-3.3-1.3c-0.1-0.1-0.2-0.1-0.2,0c-0.1,0.1-0.1,0.1-0.1,0.2v4.6c0,0.2,0.1,0.4,0.3,0.5c0.9,0.4,1.8,0.7,2.7,0.9
	c1.2,0.2,2.4,0.4,3.6,0.3c1.9,0,3.5-0.3,4.8-0.9c1.2-0.5,2.2-1.3,3-2.4C52.9,41.6,53.3,40.4,53.2,39.2z"/>
</svg>
