<?xml version="1.0" encoding="utf-8"?>
<!-- Generator: Adobe Illustrator 26.4.1, SVG Export Plug-In . SVG Version: 6.00 Build 0)  -->
<svg version="1.1" id="Camada_1" xmlns="http://www.w3.org/2000/svg" xmlns:xlink="http://www.w3.org/1999/xlink" x="0px" y="0px"
	 width="65px" height="65px" viewBox="0 0 65 65" enable-background="new 0 0 65 65" xml:space="preserve">
<path fill="#FFFFFF" d="M32.3,49.1c-4.4,0-7.9,3.6-7.9,7.9s3.6,7.9,7.9,7.9s7.9-3.6,7.9-7.9c0-2.2-0.9-4.2-2.3-5.6
	C36.5,50,34.5,49.1,32.3,49.1L32.3,49.1z M23.4,5.8l-21,20.8C0.9,28,0,30.1,0,32.3s0.9,4.3,2.4,5.7h0l20.9,21
	c-0.1-0.6-0.2-1.3-0.2-2c0-5.1,4.2-9.3,9.3-9.3c0.8,0,1.6,0.1,2.3,0.3l-0.1,0l-15-15.7l11.8-11.8l-5.6-5.6c-1.7-1.7-2.7-4.1-2.7-6.7
	C23.1,7.3,23.2,6.5,23.4,5.8L23.4,5.8z M32.5,0c-4.5,0-8.1,3.6-8.1,8.1c0,2.2,0.9,4.3,2.4,5.7l18.6,18.6l-12,12.3l4.7,5
	c0.7,0.6,1.4,1.2,1.9,2l0,0l0,0l0,0c1,1.5,1.6,3.3,1.6,5.3c0,0.8-0.1,1.5-0.3,2.2l0-0.1l21-20.7c0.1-0.1,0.2-0.1,0.3-0.2
	c0.1-0.1,0.1-0.1,0.2-0.2c1.4-1.4,2.2-3.4,2.2-5.6c0-2.2-0.9-4.3-2.4-5.7L38.3,2.4C36.8,0.9,34.8,0,32.5,0L32.5,0L32.5,0L32.5,0z"/>
</svg>
