<?xml version="1.0" encoding="utf-8"?>
<!-- Generator: Adobe Illustrator 26.4.1, SVG Export Plug-In . SVG Version: 6.00 Build 0)  -->
<svg version="1.1" id="Camada_1" xmlns="http://www.w3.org/2000/svg" xmlns:xlink="http://www.w3.org/1999/xlink" x="0px" y="0px"
	 width="122.5px" height="122.5px" viewBox="0 0 122.5 122.5" enable-background="new 0 0 122.5 122.5" xml:space="preserve">
<g>
	<path fill="#FFFFFF" d="M8.1,61.3c0,21,12.2,39.2,30,47.8L12.7,39.6C9.8,46.2,8.1,53.6,8.1,61.3z"/>
	<path fill="#FFFFFF" d="M62.2,65.9l-15.9,46.3c4.8,1.4,9.8,2.2,15,2.2c6.2,0,12.1-1.1,17.6-3c-0.1-0.2-0.3-0.5-0.4-0.7L62.2,65.9z"
		/>
	<path fill="#FFFFFF" d="M107.9,35.8c0.2,1.7,0.4,3.5,0.4,5.5c0,5.4-1,11.5-4,19L88,107.2c15.8-9.2,26.4-26.3,26.4-45.9
		C114.4,52,112,43.3,107.9,35.8z"/>
	<path fill="#FFFFFF" d="M61.3,0C27.5,0,0,27.5,0,61.3c0,33.8,27.5,61.3,61.3,61.3c33.8,0,61.3-27.5,61.3-61.3
		C122.5,27.5,95,0,61.3,0z M61.3,117.8c-31.1,0-56.5-25.3-56.5-56.5c0-31.1,25.3-56.5,56.5-56.5c31.1,0,56.5,25.3,56.5,56.5
		C117.7,92.4,92.4,117.8,61.3,117.8z"/>
	<path fill="#FFFFFF" d="M97.1,58.6c0-6.6-2.4-11.1-4.4-14.7c-2.7-4.4-5.2-8.1-5.2-12.5c0-4.9,3.7-9.4,8.9-9.4c0.2,0,0.5,0,0.7,0
		c-9.5-8.7-22.1-14-35.9-14c-18.6,0-34.9,9.5-44.4,24c1.2,0,2.4,0.1,3.4,0.1c5.6,0,14.2-0.7,14.2-0.7c2.9-0.2,3.2,4,0.3,4.4
		c0,0-2.9,0.3-6.1,0.5L48,93.9L59.7,59l-8.3-22.7c-2.9-0.2-5.6-0.5-5.6-0.5c-2.9-0.2-2.5-4.5,0.3-4.4c0,0,8.8,0.7,14,0.7
		c5.6,0,14.2-0.7,14.2-0.7c2.9-0.2,3.2,4,0.3,4.4c0,0-2.9,0.3-6.1,0.5l19.2,57.1l5.3-17.7C95.4,68.4,97.1,63.1,97.1,58.6z"/>
</g>
</svg>
