<?xml version="1.0" encoding="utf-8"?>
<!-- Generator: Adobe Illustrator 26.4.1, SVG Export Plug-In . SVG Version: 6.00 Build 0)  -->
<svg version="1.1" id="Camada_1" xmlns="http://www.w3.org/2000/svg" xmlns:xlink="http://www.w3.org/1999/xlink" x="0px" y="0px"
	 width="32px" height="26px" viewBox="0 0 32 26" enable-background="new 0 0 32 26" xml:space="preserve">
<path fill="#FFFFFF" d="M1.9,0.5C1.4,0,0.7,0.1,0.3,0.7s-0.3,1.3,0.2,1.7l29.6,23.2c0.5,0.4,1.3,0.3,1.7-0.2
	c0.4-0.5,0.3-1.3-0.2-1.7l-5.3-4.1c2-2,3.3-4.3,4-5.9c0.2-0.4,0.2-0.8,0-1.2C29.5,10.6,28,8,25.6,5.8c-2.3-2.2-5.6-4-9.6-4
	c-3.4,0-6.2,1.3-8.5,3L1.9,0.5z M11.2,7.7c1.3-1.2,3-1.9,4.8-1.9c4,0,7.2,3.2,7.2,7.2c0,1.2-0.3,2.4-0.9,3.4l-1.9-1.5
	c0.4-1,0.5-2.1,0.2-3.2c-0.6-2.1-2.4-3.5-4.4-3.6c-0.3,0-0.5,0.3-0.4,0.6c0.1,0.3,0.2,0.7,0.2,1c0,0.5-0.1,1-0.3,1.4L11.2,7.7
	L11.2,7.7z M18.6,19.7c-0.8,0.3-1.7,0.5-2.6,0.5c-4,0-7.2-3.2-7.2-7.2c0-0.3,0-0.7,0.1-1L4.2,8.3c-1.1,1.5-2,3-2.4,4.1
	c-0.2,0.4-0.2,0.8,0,1.2C2.5,15.4,4,18,6.4,20.2c2.3,2.2,5.6,4,9.6,4c2.4,0,4.5-0.6,6.3-1.6L18.6,19.7z"/>
</svg>
