<?xml version="1.0" encoding="utf-8"?>
<!-- Generator: Adobe Illustrator 26.4.1, SVG Export Plug-In . SVG Version: 6.00 Build 0)  -->
<svg version="1.1" id="Camada_1" xmlns="http://www.w3.org/2000/svg" xmlns:xlink="http://www.w3.org/1999/xlink" x="0px" y="0px"
	 width="32px" height="26px" viewBox="0 0 32 26" enable-background="new 0 0 32 26" xml:space="preserve">
<path fill="#FFFFFF" d="M16,1.8c-4,0-7.3,1.8-9.6,4C4.1,8,2.5,10.6,1.8,12.4c-0.2,0.4-0.2,0.8,0,1.2c0.7,1.8,2.3,4.4,4.6,6.6
	c2.4,2.2,5.6,4,9.6,4s7.3-1.8,9.6-4c2.3-2.2,3.9-4.8,4.6-6.6c0.2-0.4,0.2-0.8,0-1.2C29.6,10.6,28,8,25.7,5.8
	C23.3,3.6,20.1,1.8,16,1.8z M8.8,13c0-4,3.2-7.2,7.2-7.2S23.2,9,23.2,13S20,20.2,16,20.2S8.8,17,8.8,13z M16,9.8
	c0,1.8-1.4,3.2-3.2,3.2c-0.4,0-0.7-0.1-1-0.2c-0.3-0.1-0.6,0.1-0.6,0.4c0,0.3,0.1,0.7,0.2,1c0.7,2.6,3.3,4.1,5.9,3.4
	c2.6-0.7,4.1-3.3,3.4-5.9c-0.6-2.1-2.4-3.5-4.4-3.6c-0.3,0-0.5,0.3-0.4,0.6C16,9.1,16,9.4,16,9.8L16,9.8z"/>
</svg>
