<?xml version="1.0" encoding="utf-8"?>
<!-- Generator: Adobe Illustrator 26.4.1, SVG Export Plug-In . SVG Version: 6.00 Build 0)  -->
<svg version="1.1" id="Camada_1" xmlns="http://www.w3.org/2000/svg" xmlns:xlink="http://www.w3.org/1999/xlink" x="0px" y="0px"
	 width="16px" height="16px" viewBox="0 0 16 16" enable-background="new 0 0 16 16" xml:space="preserve">
<path fill="#FFFFFF" d="M14.8,1c-0.7-0.7-1.7-0.7-2.3,0l-0.9,0.8l2.9,2.9l0.9-0.9c0.7-0.7,0.7-1.7,0-2.3L14.8,1z M5.9,7.5
	C5.8,7.7,5.6,7.9,5.5,8.2l-0.8,2.6c-0.1,0.3,0,0.6,0.2,0.7c0.2,0.1,0.5,0.2,0.7,0.1l2.6-0.8c0.3-0.1,0.5-0.2,0.7-0.4l5-5l-2.9-2.9
	L5.9,7.5z M3.7,2.3c-1.6,0-2.8,1.3-2.8,2.8v7.6c0,1.6,1.3,2.8,2.8,2.8h7.6c1.6,0,2.8-1.3,2.8-2.8V9.9c0-0.6-0.5-0.9-0.9-0.9
	c-0.6,0-0.9,0.5-0.9,0.9v2.8c0,0.6-0.5,0.9-0.9,0.9H3.7c-0.6,0-0.9-0.5-0.9-0.9V5.1c0-0.6,0.5-0.9,0.9-0.9h2.8
	c0.6,0,0.9-0.5,0.9-0.9S7,2.3,6.5,2.3C6.5,2.3,3.7,2.3,3.7,2.3z"/>
</svg>
