<?xml version="1.0" encoding="utf-8"?>
<!-- Generator: Adobe Illustrator 26.4.1, SVG Export Plug-In . SVG Version: 6.00 Build 0)  -->
<svg version="1.1" id="Camada_1" xmlns="http://www.w3.org/2000/svg" xmlns:xlink="http://www.w3.org/1999/xlink" x="0px" y="0px"
	 width="16px" height="16px" viewBox="0 0 16 16" enable-background="new 0 0 16 16" xml:space="preserve">
<path fill="#FFFFFF" d="M5.7,2c0.2-0.3,0.4-0.5,0.7-0.5h3.1c0.3,0,0.6,0.2,0.7,0.5l0.2,0.3h2.4c0.5,0,0.8,0.3,0.8,0.8
	s-0.3,0.8-0.8,0.8H3.1c-0.5,0-0.8-0.3-0.8-0.8s0.3-0.8,0.8-0.8h2.4L5.7,2z M3.1,4.8h9.8v8.1c0,0.9-0.7,1.6-1.6,1.6H4.8
	c-0.9,0-1.6-0.7-1.6-1.6V4.8z M5.6,6.4c-0.2,0-0.4,0.2-0.4,0.4v5.7c0,0.2,0.2,0.4,0.4,0.4S6,12.7,6,12.5V6.8C6,6.5,5.8,6.4,5.6,6.4z
	 M8,6.4c-0.2,0-0.4,0.2-0.4,0.4v5.7c0,0.2,0.2,0.4,0.4,0.4c0.2,0,0.4-0.2,0.4-0.4V6.8C8.4,6.5,8.2,6.4,8,6.4z M10.4,6.4
	c-0.2,0-0.4,0.2-0.4,0.4v5.7c0,0.2,0.2,0.4,0.4,0.4s0.4-0.2,0.4-0.4V6.8C10.8,6.5,10.7,6.4,10.4,6.4z"/>
</svg>
